<svg t="1600863882655" class="icon" viewBox="0 0 1024 1024" version="1.1" xmlns="http://www.w3.org/2000/svg" p-id="24174" width="256" height="256">
    <path d="M198.32 612.116l4.403-1.887 1.887 4.403-4.403 1.886zM203.17 623.68l4.62-1.89-1.89-4.41-4.41 1.89zM204.407 626.386l4.402-1.887 1.887 4.403-4.402 1.887zM207.554 633.515l4.403-1.886 1.887 4.402-4.403 1.887zM191.607 614.834l4.402-1.887 1.887 4.403-4.402 1.887zM194.758 621.973l4.403-1.887 1.887 4.402-4.403 1.887zM197.71 629.13l1.89 4.41 4.41-1.89-1.68-4.41zM200.86 636.27l1.89 4.62 4.41-1.89-1.89-4.41zM185.098 617.566l4.403-1.887 1.887 4.402-4.403 1.887zM192.47 623.05l-4.41 1.68 1.89 4.61 4.41-1.89zM191.187 632.043l4.403-1.886 1.887 4.402-4.403 1.887zM194.129 639.182l4.402-1.887 1.887 4.403-4.402 1.886zM178.389 620.503l4.402-1.887 1.887 4.403-4.402 1.886zM181.54 627.641l4.403-1.886 1.887 4.402-4.403 1.887zM184.469 634.775l4.402-1.887 1.887 4.402-4.403 1.887zM187.617 641.915l4.403-1.886 1.887 4.402-4.403 1.887zM171.88 623.234l4.403-1.887 1.886 4.403-4.402 1.887zM174.818 630.364l4.402-1.887 1.887 4.402-4.403 1.887zM182.39 635.85l-4.4 1.68 1.89 4.4 4.4-1.67zM180.907 644.841l4.402-1.886 1.887 4.402-4.403 1.887zM214.267 649.675l4.402-1.887 1.887 4.402-4.402 1.887zM219.12 661.24l4.62-1.89-1.89-4.4-4.41 1.88zM220.356 663.943l4.402-1.887 1.887 4.402-4.402 1.887zM223.507 671.081l4.403-1.887 1.887 4.403-4.403 1.887zM207.58 652.43l1.89 4.4 4.4-1.88-1.68-4.41zM210.705 659.531l4.402-1.886 1.887 4.402-4.402 1.887zM213.87 666.7l1.68 4.41 4.41-1.89-1.68-4.41zM216.789 674.022l4.402-1.886 1.887 4.402-4.402 1.887zM201.049 655.133l4.402-1.886 1.887 4.402-4.402 1.887zM203.986 662.473l4.403-1.887 1.887 4.402-4.403 1.887zM207.138 669.611l4.402-1.886 1.887 4.402-4.402 1.887zM216.39 679.29l-1.68-4.41-4.61 1.89 1.88 4.41zM194.34 658.07l4.402-1.886 1.887 4.403-4.403 1.886zM197.478 665.204l4.402-1.887 1.887 4.403-4.402 1.887zM200.42 672.343l4.402-1.887 1.886 4.402-4.402 1.887zM203.57 679.47l4.402-1.887 1.887 4.402-4.403 1.887zM187.827 660.793l4.402-1.887 1.887 4.403-4.402 1.886zM190.768 667.932l4.403-1.887 1.886 4.402-4.402 1.887zM193.916 675.27l4.402-1.886 1.887 4.402-4.402 1.887zM196.857 682.41l4.403-1.887 1.886 4.402-4.402 1.887zM230.218 687.243l4.402-1.887 1.887 4.402-4.403 1.887zM233.365 694.372l4.402-1.887 1.887 4.403-4.402 1.886zM236.306 701.51l4.403-1.886 1.887 4.402-4.403 1.887zM239.454 708.64l4.402-1.887 1.887 4.402-4.402 1.887zM229.82 692.51l-1.68-4.41-4.4 1.89 1.68 4.41zM226.656 697.1l4.402-1.887 1.887 4.402-4.403 1.887zM236.12 706.78l-1.89-4.41-4.41 1.89 1.68 4.41zM232.735 711.581l4.403-1.887 1.887 4.403-4.403 1.887zM218.91 697.13l4.41-1.68-1.89-4.62-4.41 1.89zM224.58 698.18l-4.62 1.89 1.89 4.4 4.4-1.89zM223.084 707.17l4.403-1.887 1.887 4.403-4.403 1.886zM226.05 714.34l1.88 4.4 4.41-1.89-1.68-4.4zM210.286 695.63l4.402-1.887 1.887 4.402-4.402 1.887zM213.428 702.772l4.403-1.887 1.887 4.403-4.403 1.887zM216.366 709.901l4.402-1.886 1.887 4.402-4.402 1.887zM219.517 717.04l4.403-1.887 1.887 4.403-4.403 1.886zM203.777 698.36l4.403-1.886 1.887 4.403-4.403 1.886zM206.715 705.49l4.402-1.887 1.887 4.403-4.402 1.887zM209.866 712.839l4.403-1.887 1.887 4.402-4.403 1.887zM212.795 719.972l4.402-1.887 1.887 4.403-4.403 1.887z" fill="#C6D0D9" p-id="24175"></path>
    <path d="M141.035 477.18l4.403-1.886 1.886 4.402-4.402 1.887zM138.094 470.042l4.402-1.887 1.887 4.402-4.403 1.887zM134.955 462.908l4.403-1.886 1.887 4.402-4.403 1.887zM132.012 455.771l4.403-1.886 1.886 4.402-4.402 1.887zM134.536 480.118l4.402-1.887 1.887 4.402-4.402 1.887zM131.382 472.98l4.403-1.886 1.887 4.402-4.403 1.887zM128.447 465.64l4.402-1.887 1.887 4.403-4.402 1.886zM125.293 458.503l4.403-1.887 1.887 4.403-4.403 1.886zM127.813 482.84l4.403-1.887 1.886 4.403-4.402 1.886zM124.876 475.71l4.402-1.886 1.887 4.402-4.403 1.887zM121.729 468.572l4.402-1.887 1.887 4.402-4.402 1.887zM118.796 461.439l4.402-1.887 1.887 4.402-4.402 1.887zM121.33 485.59l1.88 4.62 4.41-1.89-1.89-4.41zM118.166 478.438l4.403-1.887 1.886 4.403-4.402 1.886zM115.225 471.3l4.402-1.887 1.887 4.402-4.403 1.887zM112.075 464.171l4.403-1.886 1.887 4.402-4.403 1.887zM114.595 488.509l4.402-1.887 1.887 4.402-4.402 1.887zM111.654 481.37l4.402-1.887 1.887 4.403-4.403 1.887zM108.501 474.244l4.403-1.887 1.887 4.403-4.403 1.887zM109.99 465.02l-4.4 1.89 1.67 4.41 4.62-1.89zM125.085 439.612l4.402-1.886 1.887 4.402-4.403 1.887zM122.156 432.48l4.403-1.888 1.887 4.403-4.403 1.887zM119 425.344l4.403-1.887 1.887 4.403-4.402 1.886zM116.071 418.208l4.403-1.887 1.887 4.403-4.403 1.886zM118.583 442.552l4.402-1.887 1.887 4.402-4.402 1.887zM115.45 435.22l1.89 4.62 4.41-1.89-1.89-4.41zM112.494 428.073l4.403-1.886 1.887 4.402-4.403 1.887zM109.349 420.943l4.402-1.887 1.887 4.402-4.403 1.887zM111.866 445.281l4.403-1.887 1.887 4.403-4.403 1.887zM108.925 438.143l4.403-1.887 1.886 4.402-4.402 1.887zM105.79 431.006l4.403-1.887 1.887 4.403-4.402 1.887zM104.75 428.3l4.4-1.89-1.89-4.41-4.4 1.68zM111.67 450.75l-1.89-4.4-4.4 1.68 1.88 4.4zM102.216 440.87l4.402-1.887 1.887 4.403-4.403 1.886zM99.278 433.74l4.402-1.886 1.887 4.402-4.402 1.887zM96.128 426.6l4.403-1.886 1.887 4.403-4.403 1.886zM98.644 450.94l4.403-1.886 1.887 4.402-4.403 1.887zM100.13 441.94l-4.41 1.89 1.68 4.4 4.62-1.88zM96.98 434.8l-4.41 1.68 1.89 4.41 4.41-1.68zM94.04 427.46l-4.4 1.89 1.68 4.4 4.61-1.88zM109.138 402.054l4.402-1.887 1.887 4.402-4.402 1.887zM106.202 394.914l4.402-1.887 1.887 4.403-4.402 1.887zM103.058 387.782l4.403-1.887 1.887 4.403-4.403 1.886zM100.117 380.643l4.402-1.886 1.887 4.402-4.402 1.887zM102.637 404.992l4.402-1.886 1.887 4.402-4.402 1.887zM99.5 397.66l1.89 4.41 4.41-1.68-1.89-4.62zM96.551 390.512l4.403-1.887 1.886 4.403-4.402 1.886zM93.397 383.376l4.402-1.887 1.887 4.403-4.403 1.886zM95.916 407.713l4.402-1.887 1.887 4.403-4.402 1.887zM92.977 400.585l4.402-1.887 1.887 4.403-4.402 1.887zM89.836 393.441l4.403-1.886 1.886 4.402-4.402 1.887zM93.2 388.84l-1.88-4.4-4.41 1.68 1.89 4.4zM95.72 413.19l-1.89-4.62-4.4 1.89 1.89 4.41zM86.269 403.311l4.402-1.886 1.887 4.402-4.402 1.887zM83.326 396.174l4.402-1.887 1.887 4.403-4.402 1.886zM80.18 389.043l4.402-1.886 1.887 4.402-4.402 1.887zM82.696 413.383l4.403-1.887 1.886 4.403-4.402 1.887zM84.18 404.37l-4.41 1.89 1.68 4.41 4.62-1.89zM81.03 397.03l-4.4 1.89 1.88 4.41 4.41-1.68zM78.09 389.89l-4.4 1.89 1.68 4.41 4.4-1.89z" fill="#C7D0D9" p-id="24176"></path>
    <path d="M334.47 310.11l2.84 1.87a249.13 249.13 0 0 1 14.99-20.4l-2.63-2.15a254.309 254.309 0 0 0-15.2 20.68zM616.27 687.33a247.85 247.85 0 0 1-24.61 5.98l0.63 3.34c8.43-1.6 16.76-3.62 24.95-6.06l-0.97-3.26zM302.51 379.91c-2.33 8.22-4.23 16.58-5.71 25.03l3.35 0.59a248.62 248.62 0 0 1 5.63-24.69l-3.27-0.93zM302.98 505.94c-1.92-8.2-3.43-16.51-4.51-24.92l-3.37 0.43c1.1 8.52 2.63 16.95 4.58 25.26l3.3-0.77zM306.84 531.49c2.8 8.1 6.02 16.04 9.63 23.79l3.08-1.43c-3.56-7.65-6.73-15.48-9.5-23.47l-3.21 1.11zM663.12 667.95a246.51 246.51 0 0 1-22.87 10.87l1.3 3.14c7.92-3.28 15.65-6.96 23.19-11.02l-1.62-2.99zM377.38 637.19l2.26-2.54a249.96 249.96 0 0 1-18.02-17.79l-2.51 2.3c5.78 6.31 11.88 12.33 18.27 18.03zM566.81 696.72c-7.19 0.62-14.43 0.93-21.71 0.94-1.23 0-2.43-0.01-3.63-0.03l-0.05 3.4c1.22 0.02 2.44 0.03 3.68 0.03 7.38 0 14.72-0.32 22.01-0.95l-0.3-3.39zM466.76 685.08c-8.02-2.66-15.9-5.73-23.59-9.19l-1.39 3.1c7.8 3.51 15.78 6.62 23.92 9.32l1.06-3.23zM420.64 664.35c-7.31-4.23-14.4-8.84-21.24-13.79l-1.99 2.75a251.59 251.59 0 0 0 21.53 13.98l1.7-2.94zM516.2 696c-8.42-0.97-16.75-2.37-24.98-4.19l-0.73 3.32c8.34 1.84 16.79 3.26 25.32 4.24l0.39-3.37zM545.07 200.13c8.49 0 16.93 0.43 25.3 1.27l0.34-3.38c-8.48-0.86-17.03-1.29-25.64-1.29v3.4zM668.01 228.65c-7.47-4.18-15.15-7.97-23.01-11.36l-1.35 3.12c7.76 3.35 15.33 7.09 22.7 11.21l1.66-2.97zM293.66 430.46c-0.44 6.08-0.65 12.19-0.65 18.35 0 2.45 0.04 4.89 0.1 7.32l3.4-0.1c-0.07-2.4-0.1-4.81-0.1-7.23 0-6.07 0.22-12.11 0.65-18.11l-3.4-0.23zM769.15 340.5l3.06-1.48c-3.74-7.7-7.87-15.21-12.37-22.49l-2.89 1.79c4.44 7.17 8.52 14.58 12.2 22.18zM754.96 582.57l2.87 1.83c4.61-7.21 8.84-14.66 12.69-22.3l-3.04-1.53c-3.79 7.54-7.97 14.88-12.52 22zM620.95 208.34a251.2 251.2 0 0 0-24.86-6.45l-0.68 3.33a247.1 247.1 0 0 1 24.52 6.36l1.02-3.24zM527.41 200.74l-0.24-3.39c-8.58 0.6-17.08 1.63-25.48 3.09l0.58 3.35c8.3-1.44 16.68-2.46 25.14-3.05zM324.44 333.86l-3.01-1.57c-3.96 7.59-7.52 15.38-10.69 23.34l3.16 1.26c3.12-7.86 6.64-15.54 10.54-23.03zM345.51 597.36c-5.04-6.77-9.74-13.8-14.07-21.05l-2.92 1.74c4.39 7.35 9.15 14.47 14.26 21.34l2.73-2.03zM369.25 272.85c5.97-5.97 12.25-11.63 18.8-16.97l-2.15-2.64c-6.64 5.41-13 11.15-19.05 17.2l2.4 2.41zM430.37 228.05l-1.57-3.02c-7.6 3.95-14.99 8.29-22.14 12.99l1.87 2.84c7.06-4.63 14.35-8.91 21.84-12.81zM477.49 209.4l-0.92-3.27c-8.26 2.32-16.37 5.06-24.32 8.21l1.25 3.16c7.84-3.11 15.84-5.81 23.99-8.1zM779.06 363.92c2.88 7.93 5.36 16.01 7.42 24.21l3.3-0.83a250.11 250.11 0 0 0-7.52-24.54l-3.2 1.16zM794.75 412.54l-3.37 0.49c1.2 8.33 1.98 16.74 2.34 25.22l3.4-0.14c-0.36-8.6-1.15-17.13-2.37-25.57zM777.71 537.38l3.18 1.21c3.04-7.99 5.68-16.14 7.9-24.42l-3.28-0.88c-2.2 8.17-4.8 16.21-7.8 24.09zM726.08 278.16c5.8 6.14 11.29 12.57 16.44 19.26l2.69-2.07c-5.22-6.79-10.78-13.3-16.66-19.53l-2.47 2.34zM790.78 488.53l3.36 0.54c1.35-8.43 2.28-16.94 2.77-25.53l-3.39-0.2c-0.49 8.47-1.4 16.87-2.74 25.19zM723.48 622.31l2.44 2.37a254.13 254.13 0 0 0 16.94-19.28l-2.66-2.11a249.6 249.6 0 0 1-16.72 19.02zM684.82 654.76l1.91 2.81c7.08-4.81 13.91-9.98 20.47-15.49l-2.19-2.6a251.58 251.58 0 0 1-20.19 15.28zM689.82 242.34l-1.95 2.78a252.18 252.18 0 0 1 19.97 15.57l2.22-2.57a259.034 259.034 0 0 0-20.24-15.78zM759.8 164.5c-6.81-5.16-13.8-10.07-20.96-14.72l-1.85 2.85c7.09 4.61 14.02 9.47 20.76 14.58l2.05-2.71zM824 664.85l2.69 2.08c5.23-6.75 10.22-13.69 14.95-20.8l-2.83-1.88a356.44 356.44 0 0 1-14.81 20.6zM344.5 158.16l-1.93-2.8a352.04 352.04 0 0 0-20.55 15.31l2.13 2.65c6.6-5.29 13.39-10.35 20.35-15.16zM388.27 132.38l-1.51-3.05c-7.65 3.79-15.17 7.86-22.52 12.2l1.73 2.93c7.28-4.29 14.72-8.32 22.3-12.08zM435.29 113.17l-1.05-3.23a353.1 353.1 0 0 0-24.06 8.83l1.29 3.15c7.82-3.21 15.77-6.12 23.82-8.75zM859.03 280.44c-4.04-7.53-8.35-14.9-12.92-22.12l-2.87 1.82c4.53 7.15 8.8 14.45 12.8 21.91l2.99-1.61zM893.85 376.33c-1.73-8.38-3.76-16.68-6.09-24.89l-3.27 0.93c2.3 8.13 4.31 16.35 6.03 24.65l3.33-0.69zM831.59 237.13c-5.08-6.87-10.4-13.55-15.95-20.04l-2.58 2.21c5.5 6.43 10.77 13.05 15.8 19.85l2.73-2.02zM900.57 427.13c-0.51-8.55-1.33-17.06-2.45-25.5l-3.37 0.45c1.11 8.36 1.91 16.79 2.42 25.26l3.4-0.21zM612.83 795.41l0.65 3.34c8.4-1.64 16.72-3.58 24.95-5.82l-0.89-3.28c-8.15 2.21-16.39 4.13-24.71 5.76zM879.98 327.3c-2.91-8.04-6.12-15.96-9.6-23.76l-3.1 1.39c3.45 7.72 6.62 15.57 9.51 23.53l3.19-1.16zM304.88 189.94l-2.31-2.49a360.066 360.066 0 0 0-18.16 18.08l2.48 2.32c5.78-6.18 11.78-12.16 17.99-17.91zM896.62 478.11l3.39 0.28c0.7-8.48 1.1-17.02 1.19-25.59l-3.4-0.04c-0.1 8.49-0.49 16.95-1.18 25.35zM621.15 100.61c-8.33-1.82-16.73-3.33-25.2-4.55l-0.48 3.37c8.39 1.2 16.71 2.71 24.96 4.5l0.72-3.32zM716.78 136.55c-7.48-4.12-15.1-7.98-22.86-11.56l-1.42 3.09c7.68 3.54 15.23 7.36 22.64 11.44l1.64-2.97zM670.34 115.14c-7.99-3.01-16.1-5.73-24.3-8.15l-0.96 3.26c8.13 2.4 16.15 5.09 24.07 8.07l1.19-3.18zM863.85 600.05a352.8 352.8 0 0 1-11.7 22.51l2.96 1.68c4.21-7.43 8.15-15.01 11.81-22.72l-3.07-1.47zM888.84 528.21l3.31 0.76c1.91-8.31 3.52-16.69 4.84-25.15l-3.36-0.52c-1.3 8.37-2.9 16.68-4.79 24.91zM534.82 95.97l-0.1-3.4c-8.57 0.24-17.09 0.78-25.57 1.63l0.34 3.38c8.39-0.84 16.84-1.38 25.33-1.61zM484.28 101.01l-0.58-3.35c-8.43 1.46-16.79 3.22-25.07 5.28l0.82 3.3c8.2-2.04 16.48-3.79 24.83-5.23zM570.47 93.33c-8.49-0.6-17.03-0.91-25.61-0.91v3.4c8.5 0 16.96 0.3 25.37 0.9l0.24-3.39zM873.88 576.79l3.17 1.23c3.1-7.96 5.91-16.03 8.43-24.2l-3.25-1c-2.49 8.09-5.28 16.09-8.35 23.97zM790.23 702.56l2.36 2.44c6.14-5.94 12.06-12.1 17.76-18.47l-2.53-2.27a349.372 349.372 0 0 1-17.59 18.3zM751.32 735.19l1.99 2.75c6.92-5.01 13.66-10.26 20.21-15.75l-2.18-2.61a350.032 350.032 0 0 1-20.02 15.61zM323.64 728.49c6.7 5.3 13.58 10.36 20.64 15.17l1.91-2.81a353 353 0 0 1-20.44-15.03l-2.11 2.67zM218.47 313.92l-3.14-1.3c-3.27 7.89-6.26 15.9-8.95 24.02l3.23 1.07c2.66-8.04 5.62-15.97 8.86-23.79zM412.08 779.83c7.92 3.18 15.96 6.07 24.1 8.68l1.03-3.24a349.38 349.38 0 0 1-23.87-8.59l-1.26 3.15zM288.37 691.62l-2.47 2.34a355.54 355.54 0 0 0 18.27 17.95l2.3-2.51a357.103 357.103 0 0 1-18.1-17.78zM798.26 198.2a355.845 355.845 0 0 0-18.66-17.57l-2.24 2.56a353.18 353.18 0 0 1 18.48 17.4l2.42-2.39zM366 757.34c7.38 4.29 14.92 8.31 22.6 12.06l1.49-3.06c-7.6-3.71-15.07-7.7-22.38-11.94l-1.71 2.94zM708.15 761.92l1.58 3.01c7.57-3.96 14.99-8.2 22.25-12.69l-1.79-2.89c-7.2 4.46-14.55 8.65-22.04 12.57zM661.54 782.18l1.13 3.21a353.92 353.92 0 0 0 23.85-9.35l-1.35-3.12c-7.77 3.37-15.64 6.46-23.63 9.26zM562.42 801.53l0.17 3.4c8.56-0.42 17.07-1.15 25.53-2.17l-0.41-3.37c-8.38 1.01-16.81 1.72-25.29 2.14zM460.85 795.41c8.29 2 16.65 3.7 25.09 5.11l0.56-3.35c-8.36-1.39-16.65-3.08-24.85-5.06l-0.8 3.3zM511.35 803.81c8.48 0.79 17.01 1.28 25.58 1.47l0.07-3.4c-8.49-0.19-16.94-0.67-25.34-1.45l-0.31 3.38zM271.56 672.55c-5.37-6.54-10.5-13.28-15.38-20.19l-2.78 1.96c4.93 6.98 10.11 13.78 15.53 20.38l2.63-2.15zM194.17 513.8c1.55 8.42 3.4 16.76 5.54 25.01l3.29-0.86c-2.12-8.18-3.96-16.44-5.49-24.77l-3.34 0.62zM206.99 563.18c2.74 8.1 5.77 16.09 9.08 23.95l3.13-1.32c-3.28-7.79-6.28-15.7-9-23.72l-3.21 1.09zM188.55 462.87c0.33 8.56 0.96 17.08 1.89 25.55l3.38-0.37c-0.92-8.38-1.55-16.82-1.87-25.31l-3.4 0.13zM226.9 610.43a359.21 359.21 0 0 0 12.44 22.39l2.91-1.76c-4.37-7.24-8.48-14.64-12.32-22.18l-3.03 1.55zM202.48 362.07l-3.3-0.84c-2.1 8.27-3.9 16.63-5.39 25.06l3.35 0.59c1.48-8.34 3.26-16.62 5.34-24.81zM193.6 412.01l-3.38-0.35c-0.88 8.47-1.47 16.99-1.74 25.56l3.4 0.11c0.27-8.49 0.85-16.93 1.72-25.32zM270.26 226.96l-2.64-2.14a356.18 356.18 0 0 0-15.39 20.47l2.79 1.95c4.83-6.95 9.92-13.71 15.24-20.28zM241.24 268.56l-2.92-1.74A362.43 362.43 0 0 0 226 289.29l3.04 1.53c3.8-7.56 7.87-14.99 12.2-22.26zM184.07 283.29c0.63-1.68-2.94-4.62-8.18-6.93 1.68-5.67 1.68-10.07 0.21-10.7s-4.41 2.94-6.72 8.18c-5.67-1.47-10.07-1.68-10.7 0s2.94 4.62 8.18 6.93c-1.68 5.46-1.68 9.86-0.21 10.49 1.68 0.63 4.41-2.73 6.72-7.97 5.67 1.46 10.07 1.67 10.7 0zM286.27 775.62l0.42-1.05c0.42-0.84 0.63-2.1 0.42-3.15-0.63-2.73-3.36-4.62-6.09-3.99l-1.05 0.21-0.84-0.84c-0.84-0.84-1.89-1.26-2.94-1.47-2.94-0.42-5.46 1.68-5.67 4.41l-0.21 1.05-1.05 0.42a4.16 4.16 0 0 0-2.31 2.31c-1.26 2.52 0 5.46 2.52 6.72l1.05 0.42 0.21 1.05c0.21 1.26 0.84 2.1 1.68 2.94 2.1 1.89 5.25 1.68 7.14-0.42l0.63-0.84 1.68 0.84c1.05 0.21 2.1 0 3.15-0.63 2.52-1.47 3.36-4.41 1.89-6.93l-0.63-1.05zM941.87 335.75c-0.21-0.63-0.84-1.26-1.47-1.47-1.68-0.63-3.57 0-4.2 1.68-0.63 0.21-1.26 0.42-1.68 1.05-1.26 1.26-1.05 3.15 0.21 4.41 0 0.84 0 1.47 0.42 2.1 0.84 1.47 2.94 1.89 4.41 1.05 0.63 0.21 1.47 0.42 2.1 0.42 1.68-0.42 2.73-2.1 2.31-3.78 0.42-0.63 0.84-1.26 0.84-1.89 0.21-1.89-1.26-3.36-2.94-3.57zM248.92 160.52l-1.47-0.84-0.21-1.68c-0.21-1.05-0.63-2.1-1.47-2.94-1.89-1.89-5.04-1.89-7.14 0l-1.26 1.26-1.68-0.42c-1.05-0.21-2.1 0-3.15 0.42-2.52 1.26-3.57 4.41-2.31 6.93l0.84 1.68-0.84 1.47c-0.63 0.84-0.84 2.1-0.63 3.15 0.42 2.73 3.15 4.62 5.88 4.2l1.68-0.21 0.84 1.47c0.84 0.84 1.89 1.26 2.94 1.47 2.73 0.42 5.46-1.47 5.88-4.2l0.21-1.68 1.68-0.84a4.16 4.16 0 0 0 2.31-2.31c1.47-2.52 0.42-5.67-2.1-6.93zM878.08 726.3l0.21-1.05c0.21-1.26 0.21-2.31-0.21-3.36-1.05-2.73-4.2-3.99-6.72-2.94l-1.05 0.42-1.05-0.63c-0.84-0.63-2.1-0.84-3.15-0.84-2.94 0.21-5.04 2.73-4.83 5.46v1.05l-0.84 0.63c-1.05 0.63-1.68 1.68-1.89 2.73-0.63 2.73 1.05 5.67 3.78 6.3l1.05 0.21 0.84 1.47c0.42 1.05 1.05 1.89 2.1 2.52 2.52 1.47 5.67 0.63 7.14-1.68l0.63-1.05h1.05c1.26-0.21 2.31-0.63 3.15-1.26 2.1-1.68 2.52-5.04 0.63-7.14l-0.84-0.84zM959.29 393.46c0-1.68-1.68-3.15-3.36-2.94-0.42-0.42-1.05-0.84-1.68-1.05-1.89-0.42-3.57 0.63-3.99 2.31-0.84 0.21-1.26 0.63-1.68 1.26-0.84 1.47-0.42 3.57 1.05 4.41 0.21 0.63 0.42 1.26 0.84 1.89 1.05 1.26 3.15 1.47 4.41 0.42 0.63 0.21 1.47 0.21 1.89-0.21 1.68-0.63 2.52-2.52 1.89-4.2 0.42-0.42 0.63-1.26 0.63-1.89z" fill="#DAE0E6" p-id="24177"></path>
    <path d="M279.56 494.4c-1.89 0.95-3.17 2.68-3.51 4.63l-27.94 1.59-18.23-42.92c-2.1-4.73-4.81-7.07-7.99-7.1-2.4-0.03-4.57 1.23-6.5 3.15l-0.53 0.52c-10.47 10.57-14.29 30.12-10.45 51.88l-3.79 1.58c-0.87 0.36-1.28 1.37-0.91 2.24l0.69 1.62-8.58 3.59-1.99-4.65a1.698 1.698 0 0 0-2.19-0.91l-3.69 1.48-1.03-2.42a1.704 1.704 0 0 0-2.24-0.9l-6.1 2.61-8.05-18.95a1.693 1.693 0 0 0-2.22-0.9l-10.49 4.41c-0.87 0.36-1.27 1.36-0.91 2.23l5.69 13.43-10.7 4.56-3.18-7.1a1.504 1.504 0 0 0-1.95-0.77l-0.2 0.08-5.36-12.25 18.13-7.76c0.86-0.37 1.26-1.36 0.9-2.22l-49.53-117.1a1.696 1.696 0 0 0-2.23-0.9l-39.45 16.79a1.7 1.7 0 0 0-0.9 2.23l49.74 117.1c0.37 0.87 1.37 1.27 2.23 0.9l14.18-6.07 5.33 12.19-0.4 0.17c-0.37 0.15-0.66 0.45-0.81 0.82-0.15 0.37-0.14 0.79 0.02 1.16l3.12 7.16-18.99 8.1c-0.63 0.27-1.01 0.87-1.03 1.51l-8.22 14.47-10.59-7.06c-0.74-0.49-1.71-0.44-2.39 0.12a1.99 1.99 0 0 0-0.56 2.32l3.94 9.25-8.89-1.84c-1.34-0.28-2.45 1.07-1.91 2.33l8.6 20.15c0.54 1.26 2.27 1.4 3 0.24l4.83-7.63 9.74 22.88-8.98-1.89c-0.55-0.11-1.11 0.08-1.46 0.51-0.36 0.43-0.44 1.02-0.23 1.53l8.39 20.15c0.21 0.51 0.69 0.87 1.25 0.92 0.05 0 0.09 0.01 0.14 0.01 0.5 0 0.98-0.25 1.26-0.68l5.07-7.77 4 9.41c0.32 0.74 1.05 1.22 1.84 1.22 0.07 0 0.15 0 0.23-0.01 0.88-0.1 1.59-0.76 1.74-1.63l2.22-12.42 16.27 4.29c0.48 0.44 1.19 0.59 1.82 0.31l18.78-8.1 2.69 6.56c0.36 0.87 1.36 1.29 2.23 0.92l0.35-0.14 5.14 12.1-14.36 6.11a1.7 1.7 0 0 0-0.9 2.23l49.74 117.1c0.37 0.86 1.37 1.27 2.23 0.9l39.45-16.79a1.7 1.7 0 0 0 0.9-2.23l-49.74-117.1a1.704 1.704 0 0 0-2.23-0.9l-18.16 7.73-5.12-12.04 0.26-0.11c0.86-0.36 1.27-1.35 0.92-2.21l-2.75-6.71 10.44-4.51 5.75 13.57c0.37 0.87 1.38 1.27 2.25 0.89l10.49-4.62a1.7 1.7 0 0 0 0.88-2.22l-8.25-19.44 6.07-2.43a1.69 1.69 0 0 0 0.93-2.24l-0.82-1.93 3.67-1.53c0.87-0.36 1.28-1.36 0.91-2.23l-1.99-4.71 8.67-3.76 0.69 1.62c0.37 0.86 1.36 1.26 2.22 0.9l3.5-1.46c13 18.25 30.33 29.3 45.63 28.87l0.36-0.01c6.14-0.21 10.13-5.9 6.4-14.54-0.65-1.51-2.05-4.77-3.96-9.26l-13.92-32.79 20.38-19.14c1.67 1.25 3.89 1.65 6.02 0.8 2.94-1.26 4.41-4.83 3.15-7.97-1.47-2.96-4.82-4.43-7.97-3.17zM143 512.54c0.13-0.06 0.24-0.13 0.35-0.21l1.6 3.57-4.8 2.13-1.6-3.66c0.23 0 0.46-0.05 0.68-0.15l3.77-1.68z m-26.65-12.18L67.94 386.39l36.32-15.46 48.2 113.97-17.83 7.63a1.5 1.5 0 0 0-0.36 0.11l-2.65 1.18-15.27 6.54z m17.08-3.61l0.67-0.29 5.35 12.22-0.68 0.28-5.34-12.21z m-34.06 67.88l-6.06-14.18 8.01 1.66 1.21 2.85 1.14 2.86-4.3 6.81z m15.11 36.34l-6.21-14.9 8.24 1.73 2.59 6.09-4.62 7.08z m11.1-2.09l-23.5-55.24 5.89 3.93 18.84 44.44-1.23 6.87z m5.01-8.2l-19.03-44.89 7.36-12.95 26.24 61.68-14.57-3.84z m41.67 1.64c-0.09 0.04-0.18 0.09-0.26 0.15l-1.45-3.54 0.67-0.29 3.75-1.56 1.42 3.46c-0.12 0.02-0.23 0.06-0.34 0.11l-3.79 1.67z m12.3 18.22l18.13-7.71L251.1 716.8l-36.32 15.46-48.41-113.97 13.95-5.94c0.15-0.02 0.31-0.06 0.46-0.12l3.78-1.69z m-2.93-2.45l-0.67 0.29-5.13-12.07 0.68-0.28 5.12 12.06z m-11.96-22.49l-1.99 0.83c-0.1 0.04-0.19 0.09-0.27 0.15l-18.53 8-27.42-64.44 38.22-16.3 27.42 64.24-17.43 7.52z m27.05 6.24l-40-94.43 7.36-3.09 40.02 94.27-7.38 3.25z m5.03-77.13l0.26 0.61-8.56 3.65-0.29-0.67 8.59-3.59z m-14.39-1.32l5.61 13.09-2.12 0.93-5.58-13.18 2.09-0.84z m11.28 52.71l-22.4-52.73 4.22-1.81 0.98 2.31c0.01 0.03 0.01 0.06 0.03 0.08l6.93 16.37c0.01 0.03 0.04 0.06 0.05 0.1l14.39 34.01-4.2 1.67z m-6.46-35.56l3.7-1.63c0.85-0.38 1.25-1.37 0.88-2.23l-1.97-4.59 8.55-3.64 10.79 25.21-8.69 3.63-1.97-4.66a1.703 1.703 0 0 0-2.22-0.91l-3.69 1.54-5.38-12.72z m12.52 29.01l-5.6-13.24 1.9-0.79 5.6 13.24-1.9 0.79z m2.38-8.39l-0.31-0.74 8.67-3.63 0.24 0.63-8.6 3.74z m13.15-1.89l-2-4.67-0.26-0.66-0.09-0.2c-0.01-0.03-0.03-0.05-0.05-0.08l-12.28-28.71-1.22-3.13-0.09-0.2c-0.07-0.13-0.17-0.25-0.27-0.35l-0.46-1.07 1.9-0.79 16.71 39.05-1.89 0.81z m52.72 18.48c2.47 6.16 0.05 9.32-3.89 9.32l-0.72 0.01c-13.97 0.03-30.07-10.46-42.29-27.73 0-0.21-0.05-0.42-0.13-0.63l-17.97-42.01-0.16-0.89c-3.8-21.23-0.01-40.05 9.99-49.65l0.34-0.33c1.26-1.16 2.56-1.86 3.73-1.85 1.73 0.02 3.48 1.6 5.14 5.59 0.47 1.13 1.43 3.4 2.75 6.52l43.21 101.65z m-16.38-47.21l-7.04-16.59 26.3-1.5-19.26 18.09zM309.25 486.82c-3.78-8.98-8.25-15.33-11.4-14.15-3.18 1.58-1.7 8.98 2.18 18.2l0.55 1.24c4.03 8.96 7.96 14.37 11.01 12.84 2.95-1.48 1.6-8.58-2.08-17.5l-0.26-0.63z m0.55 13.82l0.02 0.49-0.2-0.21c-0.39-0.44-0.83-1.01-1.31-1.69-1.61-2.32-3.45-5.77-5.16-9.71-1.59-3.79-2.79-7.48-3.35-10.3-0.17-0.83-0.27-1.57-0.32-2.18l-0.02-0.4c0.47 0.49 1.01 1.16 1.59 1.98 1.67 2.37 3.49 5.77 5.07 9.52 1.6 3.81 2.8 7.5 3.36 10.32l0.09 0.49c0.11 0.63 0.19 1.2 0.23 1.69zM328.97 478.63l-0.67-1.56c-7.06-16.28-15.33-27.84-20.05-25.78-4.71 2.06-2.01 15.82 5.07 33.07l0.34 0.82c7.21 17.34 15.65 29.44 20.68 27.36 4.67-2.04 2.13-15.4-4.7-32.28l-0.67-1.63z m4.05 30.8c-2.05 0.84-9.97-10.51-16.22-25.54l-0.62-1.51c-5.85-14.53-8.35-27.19-6.57-27.97 1.87-0.82 10.03 10.84 16.22 25.54l0.61 1.5c5.87 14.53 8.36 27.2 6.58 27.98zM355.14 468.56l-0.36-0.85-0.75-1.73c-9.69-21.98-20.33-37.05-26.22-34.64-5.89 2.52-2.25 21.61 7.11 43.78l0.36 0.85c9.67 22.64 21.07 38.9 27 36.36 5.87-2.51 2.22-21.59-7.14-43.77z m5.8 40.65c-1.01 0.43-4.41-2.49-8.51-8.33-4.57-6.52-9.59-15.86-14.02-26.24-4.42-10.36-7.68-20.44-9.21-28.25-1.36-6.99-1.1-11.47-0.08-11.91 1.08-0.44 4.47 2.48 8.58 8.4 4.29 6.19 9.05 15 13.39 24.88l0.56 1.29c4.42 10.36 7.68 20.44 9.21 28.25 1.37 6.99 1.1 11.47 0.08 11.91z" fill="#A2B1BF" p-id="24178"></path>
</svg>