<svg t="1602328369104" class="icon" viewBox="0 0 1666 1024" version="1.1" xmlns="http://www.w3.org/2000/svg" p-id="1486" width="256" height="256">
    <path d="M1032.2078877 403.73906591l-4.91190014 29.00676162 4.91190015 41.51514394v36.86137671l-4.91190015 28.38724268-2.45595007 33.94078742-5.51666862 6.39432045-49.72376986 5.95180693-14.1235567-10.49494578 5.4797925-47.51857746 7.41210157-33.01888426-7.40472634-30.54818373-5.4797925-33.94078742 5.4797925-26.53606111h71.24467767z m-343.71500596-1e-8l4.91190014 29.00676163-4.91190014 41.51514394v36.86137671l4.91190014 28.38724268 2.45595005 33.94078742 5.51666863 6.39432045 49.72376985 5.95180693 14.11618148-10.49494578-5.47241727-47.51857746-7.41210155-33.01888426 7.41210155-30.54818373 5.47241727-33.94078742-5.47241727-26.53606111h-71.25205288z" fill="#1296db" p-id="1487"></path>
    <path d="M1046.77395792 276.00016145H651.70525732c-15.81985853 0.04425135-28.61587467 12.95089586-28.60112423 28.85188188v274.20350628c0 15.89361081 12.7886409 28.8002553 28.60112421 28.85188187h21.48403166c1.49717076 4.43988572 3.98262173 8.48150924 7.27197228 11.80773593a7.00646416 7.00646416 0 0 0 3.20822307 1.90280816c35.82146991 9.36653631 44.71599179 21.00464203 46.83268149 27.09657822a14.24156031 14.24156031 0 0 1-1.78480456 12.5231328 6.94746234 6.94746234 0 0 0 1.15053516 9.64679487 6.78520739 6.78520739 0 0 0 9.63941964-1.11365905 28.21023727 28.21023727 0 0 0 4.056374-25.29702323c-5.08890554-15.29621754-23.40896552-27.32521021-54.45128936-35.72559199-2.57395367-3.09021945-3.3631028-5.63467223-3.3631028-7.7144858 0-2.77308476 1.74792843-5.54616952 4.84552311-7.95049301a24.26449166 24.26449166 0 0 1 3.28935053-2.09456403l0.75227299-0.39826217c1.40866807-0.65639507 2.84683703-1.23166266 4.32188211-1.71842751a57.15062186 57.15062186 0 0 1 13.52616345-1.35704148c11.9773661 0 25.99029442 2.38219781 41.56677052 7.00646415 2.60345457 1.14315995 5.24378527 2.33057124 7.83986463 3.76136498 0.79652436 0.42776308 1.58567347 0.87765182 2.38957305 1.35704146 3.304101 1.86593202 6.60082676 3.9162447 9.92705342 6.21731504 0.28763379 0.20650631 0.56051713 0.34663559 0.85552616 0.55314193 52.4083519 37.11950959 46.55242292 55.84520695 46.59667425 55.84520694a6.94008713 6.94008713 0 0 0 0.16225498 6.79258261c1.23903787 2.07981358 3.46635596 3.35572757 5.87805465 3.35572759a6.78520739 6.78520739 0 0 0 6.05506008-3.69498794c2.15356582-4.10800057 9.32966017-24.83975925-34.14729373-60.80135847h121.28558221c-43.48432914 35.99847533-36.33036047 56.70073311-34.17679465 60.80135847a7.16134388 7.16134388 0 0 0 6.29106728 3.82036677 6.77783217 6.77783217 0 0 0 6.01818396-9.89755253c-0.07375226-0.17700541-6.22469027-18.910078 46.41966885-56.206593a124.125044 124.125044 0 0 1 10.959585-6.88846055l1.98393562-1.11365905c2.74358386-1.46766986 5.44291637-2.70670775 8.14962412-3.90149425 15.52484953-4.60214067 29.50090171-6.97696327 41.46351738-6.97696326a57.87339396 57.87339396 0 0 1 13.47453684 1.34229104c1.48979554 0.48676488 2.94271494 1.06940769 4.35875824 1.74792841 0.25813288 0.12537882 0.49414011 0.25075766 0.75227299 0.35401082 1.10628381 0.58264281 2.15356582 1.24641309 3.14922127 1.99868609l0.11800359 0.08850271c3.1344708 2.40432349 4.8676488 5.19215872 4.88239923 7.9726187v0.11062838c0 2.05031268-0.83340047 4.58001499-3.37047802 7.64073354-31.05707429 8.407757-49.36238381 20.43674966-54.44391411 35.72559199a28.1291098 28.1291098 0 0 0 4.05637398 25.28227277 6.85895965 6.85895965 0 0 0 11.82986159-1.71842752 6.94008713 6.94008713 0 0 0-1.09890859-6.87371009 14.26368599 14.26368599 0 0 1-1.79955501-12.30187603c2.02818699-6.13618756 10.84895661-17.84804554 46.89168329-27.28095887a6.74833127 6.74833127 0 0 0 3.22297351-1.91018338 30.66618734 30.66618734 0 0 0 7.2793475-11.87411294c15.54697522-0.36876127 27.9594796-13.14265171 27.95947961-28.77812963V304.84466811a28.85925711 28.85925711 0 0 0-8.32662952-20.37774786A28.54212241 28.54212241 0 0 0 1046.7149561 275.99278623l0.05900182 0.00737522zM755.37142595 539.94472915c8.45938356 22.0150479 3.25247441 34.56030636-0.30238425 39.89259436-0.61214372-0.25075766-1.2169122-0.47201442-1.82168068-0.70064641a107.42015838 107.42015838 0 0 0-23.54909481-6.10668666c-0.64164462-0.07375226-1.29066444-0.16963018-1.93968428-0.25813289a94.31438281 94.31438281 0 0 0-10.19993677-0.64164461c-0.75227299 0-1.45291941 0.03687614-2.19044195 0.07375225-2.7288334 0.06637703-5.36916411 0.26550812-7.89886644 0.58264281-0.6637703 0.08112748-1.35704148 0.14012928-2.01343654 0.24338244-0.53101624 0.08112748-1.02515633 0.22125677-1.54879735 0.30238424 2.39694827-11.44634987 4.00474742-28.365117-3.45898071-39.68608805-8.00211959-12.19124763-9.86805162-49.73852031-0.14012929-78.09626206 4.17437759-12.21337331-0.86290137-34.2800478-4.42513527-46.89168329h60.9857391c2.57395367 9.13790431 6.96958803 32.36986442-3.34835235 61.67901027l-0.75227301 2.05031267c-5.00040284 14.02767877-11.23246833 31.49221259 2.6034546 67.57181538v-0.01475045z m264.81484429-6.33531864c-7.48585382 11.33572148-5.86330422 28.23973816-3.48110638 39.70083849-0.53101624-0.10325316-1.02515633-0.23600722-1.57092302-0.30238425-0.54576667-0.06637703-0.90715273-0.09587794-1.37916714-0.16225495a78.45027291 78.45027291 0 0 0-8.91664757-0.66377029c-0.41301263 0-0.81127479-0.03687614-1.2169122-0.03687613-11.45372509-0.0590018-24.41199617 2.25681898-38.07091366 7.69236013-3.56223387-5.31016232-8.77651825-17.85542077-0.31713469-39.89259436 13.83592291-36.13122938 7.58910697-53.56626231 2.57395368-67.60869152l-0.75227301-2.01343653c-10.3253156-29.35339721-5.90755557-52.54110597-3.3336019-61.67901027h61.01524001c-3.57698433 12.61163548-8.62163853 34.67093474-4.42513529 46.89168328 9.7426728 28.37249223 7.86199031 65.93451534-0.12537883 78.0741364z m27.18508094 60.4399724a23.62284706 23.62284706 0 0 0-4.43251047-7.61123264c-0.28763379-0.31713469-0.62689416-0.61951894-0.91452795-0.92927841l-0.33926039-0.33188514a29.25751928 29.25751928 0 0 0-3.3999789-3.00909197 35.35683071 35.35683071 0 0 0-4.32925734-2.85421224c-0.4646392-0.27288334-0.86290137-0.59739325-1.3644167-0.85552617-0.14750452-0.08112748-0.33926036-0.11800361-0.49414011-0.2065063h-0.03687612c-2.60345457-8.85027051-6.4680727-27.93735393-0.47938965-36.96462987 11.40209851-17.30965408 12.18387241-59.51069401 1.66680095-90.2580088-2.83946179-8.28237815 1.57829824-28.64537557 5.77480152-42.37804532h2.68458204c3.70236316-0.12537882 6.6450781-3.17872217 6.64507811-6.90321102s-2.94271494-6.78520739-6.64507811-6.903211H952.92421432a6.82208353 6.82208353 0 0 0-4.85289832 2.028187 6.94746234 6.94746234 0 0 0-2.00606132 4.88239924 6.82945875 6.82945875 0 0 0 3.74661451 6.08456098c-3.08284423 12.32400171-6.38694523 36.63274471 4.34400779 67.12930187l0.752273 2.09456402c4.49151229 12.47888143 9.52141602 26.63193904-2.46332531 57.91027007-9.73529756 25.33389937-4.63164158 41.86177955 0.54576671 50.70467483-4.7570204 2.54445277-9.36653631 5.34703844-13.81379726 8.39300655H781.53135056c-0.43513829-0.30975948-0.87765182-0.51626579-1.33491582-0.8112748a135.0625033 135.0625033 0 0 0-11.23246834-6.86633487c-0.44988875-0.24338243-0.90715273-0.5531419-1.37179191-0.79652435 5.18478349-8.85764573 10.27368902-25.37077548 0.54576668-50.66779869-11.9773661-31.21932923-6.94008713-45.35763639-2.4928262-57.85864351l0.75227299-2.1166897c10.730953-30.50393239 7.426852-54.79792494 4.34400778-67.11455142a6.85895965 6.85895965 0 0 0-3.09021945-12.99514721H678.86821256c-3.7982411 0-6.87371011 3.09021945-6.87371011 6.91058623s3.07546901 6.91058623 6.87371011 6.91058623h2.67720682c4.18175282 13.73266975 8.60688808 34.09566716 5.78217673 42.37804533-10.35481651 30.17204723-9.55091693 73.18436195 1.66680096 90.25063357 5.93705647 9.03465115 2.09456402 28.12173458-0.49414011 36.96462986-0.16225495 0.09587794-0.38351173 0.14750452-0.54576668 0.23600722-0.5531419 0.28763379-0.98828021 0.63426938-1.49717075 0.9292784-1.02515633 0.60476848-2.01343654 1.18741128-2.93533971 1.83643114a31.51433826 31.51433826 0 0 0-4.61689114 3.89411903c-0.13275406 0.14012928-0.28763379 0.27288334-0.42038785 0.42038785-0.28763379 0.28763379-0.62689416 0.58264281-0.89240228 0.87765183a28.58637377 28.58637377 0 0 0-2.21994286 3.10496989 22.84107315 22.84107315 0 0 0-2.2051924 4.51363797h-21.48403167a15.01595898 15.01595898 0 0 1-14.89795538-15.05283511V304.84466811c0-8.28237815 6.65982856-15.01595898 14.89795538-15.0528351h395.08345107c3.96049606 0.01475046 7.75136193 1.60779915 10.54657236 4.42513526s4.351383 6.6450781 4.34400777 10.62769984v274.2108815a14.97170762 14.97170762 0 0 1-14.28581165 14.9938333z" fill="#90999F" p-id="1488"></path>
    <path d="M898.37704703 538.6245638c5.02990374 4.88977446-3.84249244 10.36219173-5.92968123 7.53010517a56.3245966 56.3245966 0 0 0-44.31772962-21.75691503c-17.10314778 0-32.1043563 7.7144858-42.56980119 20.00161137-2.79521043 2.80996089-9.73529756-3.6212357-5.92968123-8.28237814a62.17315039 62.17315039 0 0 1 48.50685764-22.81157229c20.21549291 0 38.73468396 10.17781109 50.25478609 25.26014712l-0.01475045 0.0590018z" fill="#90999F" p-id="1489"></path>
    <path d="M647.05149005 719.3323373c0 15.8051081 90.50876648 28.66750125 202.14755383 28.66750125s202.14755382-12.79601613 202.14755381-28.66750125-90.50876648-28.66750125-202.14755381-28.66750125-202.14755382 12.80339135-202.14755383 28.66750125z" fill="#EAEAEA" p-id="1490"></path>
    <path d="M1170.95800372 590.4797738c0 4.72014428 3.15659649 8.85027051 7.68498489 10.06718272a10.34006605 10.34006605 0 0 0 11.66023141-4.86027357 10.46544488 10.46544488 0 0 0-1.64467526-12.58213458 10.3253156 10.3253156 0 0 0-12.51575756-1.65942571c-3.20822305 1.86593202-5.19215872 5.31016232-5.18478348 9.03465114M499.67973551 488.85654258H491.89887268a7.75873716 7.75873716 0 1 0 14.51444364 3.90149428c1.75530367-3.06809377 1.24641309-6.94008713-1.23903787-9.44028855s-6.34269387-3.00909197-9.38866198-1.23903788c-2.40432349 1.3939176-3.88674381 3.98262173-3.88674379 6.77783215M1139.85667808 525.34178279c0-10.07455793-8.12012321-18.23893249-18.14305456-18.23893248s-18.14305455 8.16437455-18.14305456 18.23893248 8.12012321 18.23893249 18.14305456 18.2389325a18.42331312 18.42331312 0 0 0 18.14305456-18.2389325z m-46.65567608 0c0-15.82723377 12.76651522-28.66750125 28.51262152-28.66750123s28.51262151 12.83289226 28.51262153 28.66750123-12.76651522 28.66750125-28.51262153 28.66750126c-15.68710449-0.14750452-28.37249223-12.89926928-28.51262152-28.66750126zM1160.58843676 327.29485433c0-7.37522543-4.41776004-14.02767877-11.19559219-16.85239012-6.77783217-2.82471134-14.58082067-1.26116355-19.77297939 3.95312084s-6.74095605 13.06152424-3.93099515 19.87623253 9.42553809 11.26196923 16.75651218 11.26196923a18.42331312 18.42331312 0 0 0 18.14305455-18.23893248z m-25.92391739 0a7.75873716 7.75873716 0 1 1 13.27540579-5.5387943c2.22731809 2.23469331 2.89108837 5.5977961 1.68892661 8.52576059a7.78823806 7.78823806 0 0 1-7.19084478 4.83077265 7.99474436 7.99474436 0 0 1-7.78086283-7.81773894z m97.97249463 132.37792124h-8.81339439a5.72317493 5.72317493 0 0 0-5.50191817 5.73055016c0 3.09021945 2.42644915 5.61992179 5.50191817 5.73055014h8.81339439v8.85764576c0.11062838 3.08284423 2.63295547 5.53141906 5.70104926 5.53141908a5.71579972 5.71579972 0 0 0 5.70104925-5.53141908v-8.85764576h8.8133944a5.70104927 5.70104927 0 0 0 5.11103122-2.80258565 5.78217674 5.78217674 0 0 0 0-5.85592899 5.67892358 5.67892358 0 0 0-5.11103122-2.80258566h-8.8133944v-8.85764574a5.69367403 5.69367403 0 1 0-11.40209851 0v8.85764574zM600.75720001 642.60049194h-15.55435043a5.20690915 5.20690915 0 0 0-5.17740825 5.20690912 4.94877626 4.94877626 0 0 0 1.42341852 3.77611544 4.8676488 4.8676488 0 0 0 3.75398973 1.43079373h15.55435045v15.63547792c0.00737523 2.87633791 2.32319602 5.19953392 5.17740824 5.20690915a4.88239925 4.88239925 0 0 0 5.17740826-5.20690915v-15.63547792h15.53959998a5.20690915 5.20690915 0 0 0 5.17740825-5.20690917 4.94877626 4.94877626 0 0 0-1.42341848-3.77611541 4.8676488 4.8676488 0 0 0-3.75398977-1.43079372h-15.53959998v-15.63547793a5.20690915 5.20690915 0 0 0-5.17740827-5.20690914 4.88239925 4.88239925 0 0 0-5.17740823 5.20690914v15.63547793z" fill="#FFCC00" p-id="1491"></path>
</svg>